<svg width="60" height="60" viewBox="0 0 60 60" fill="none" xmlns="http://www.w3.org/2000/svg">
<path d="M59.0625 30C59.0625 46.0508 46.0508 59.0625 30 59.0625C13.9492 59.0625 0.9375 46.0508 0.9375 30C0.9375 13.9492 13.9492 0.9375 30 0.9375C46.0508 0.9375 59.0625 13.9492 59.0625 30ZM26.6384 45.3884L48.2009 23.8259C48.933 23.0937 48.933 21.9064 48.2009 21.1743L45.5493 18.5227C44.8171 17.7904 43.6298 17.7904 42.8975 18.5227L25.3125 36.1076L17.1025 27.8975C16.3703 27.1654 15.183 27.1654 14.4507 27.8975L11.7991 30.5491C11.067 31.2813 11.067 32.4686 11.7991 33.2007L23.9866 45.3882C24.7189 46.1205 25.9061 46.1205 26.6384 45.3884Z" fill="#099268"/>
</svg>
