<svg width="115" height="115" viewBox="0 0 115 115" fill="none" xmlns="http://www.w3.org/2000/svg">
<path d="M32.8978 115C37.2169 115.008 41.4951 114.154 45.4864 112.489C49.4777 110.823 53.1036 108.378 56.1556 105.294L71.3647 89.9464C75.0229 86.2556 77.7667 81.746 79.3734 76.7841C80.9801 71.8221 81.4043 66.5477 80.6114 61.3892C79.8186 56.2307 77.8312 51.3337 74.8106 47.096C71.79 42.8582 67.8214 39.3992 63.2272 37L59.5057 40.7557C57.9158 42.3354 56.9121 44.4185 56.6628 46.6559C59.8645 48.0609 62.6773 50.2344 64.8562 52.9871C67.0351 55.7399 68.5141 58.9884 69.1644 62.4499C69.8147 65.9114 69.6166 69.4808 68.5873 72.8473C67.558 76.2138 65.7287 79.2754 63.2588 81.7654L48.0497 97.1138C44.0304 101.164 38.5817 103.439 32.9012 103.437C27.2208 103.435 21.7736 101.157 17.7568 97.104C13.7401 93.0508 11.4826 87.5539 11.4805 81.8217C11.4785 76.0894 13.732 70.591 17.7459 66.5348L23.9484 60.2754C22.5944 55.5113 22.0284 50.5544 22.2734 45.6044L9.63997 58.3537C5.03782 62.9936 1.9032 68.907 0.632894 75.3454C-0.637417 81.7838 0.0136821 88.4578 2.50378 94.5226C4.99388 100.587 9.21102 105.77 14.6214 109.416C20.0319 113.061 26.3923 115.004 32.8978 115Z" fill="#1CAC33"/>
<path d="M58.8388 9.71856L43.6253 25.0623C39.9704 28.7544 37.2294 33.2631 35.6246 38.223C34.0198 43.1829 33.5962 48.4544 34.3883 53.6102C35.1803 58.766 37.1657 63.661 40.1835 67.8985C43.2012 72.136 47.1665 75.5966 51.7578 78L55.4867 74.2388C57.0632 72.6484 58.0616 70.5682 58.3206 68.3345C55.1211 66.9274 52.3109 64.7534 50.1342 62.0014C47.9575 59.2494 46.4802 56.0028 45.8309 52.5438C45.1816 49.0848 45.3799 45.5182 46.4085 42.1541C47.4371 38.79 49.2649 35.7303 51.7329 33.2409L66.9464 17.8971C68.936 15.8875 71.2988 14.2931 73.8996 13.2049C76.5004 12.1167 79.2883 11.556 82.1041 11.555C84.9198 11.554 87.7081 12.1126 90.3097 13.1989C92.9113 14.2852 95.2752 15.8779 97.2663 17.886C99.2573 19.8941 100.837 22.2783 101.914 24.9022C102.991 27.5262 103.545 30.3385 103.544 33.1785C103.543 36.0184 102.987 38.8304 101.908 41.4536C100.83 44.0769 99.2489 46.46 97.2565 48.4668L91.0516 54.7249C92.4059 59.4872 92.9719 64.4422 92.7268 69.3904L105.364 56.6448C111.534 50.4221 115 41.9822 115 33.1819C115 24.3815 111.534 15.9416 105.364 9.71883C99.1947 3.49602 90.8269 5.06622e-05 82.1017 5.50628e-10C73.3764 -5.06611e-05 65.0085 3.49582 58.8388 9.71856Z" fill="#1CAC33"/>
</svg>
