<svg width="910" height="160" viewBox="0 0 910 160" fill="none" xmlns="http://www.w3.org/2000/svg">
<path d="M239.928 61.8267C239.588 58.3892 238.125 55.7187 235.539 53.8153C232.954 51.9119 229.446 50.9602 225.014 50.9602C222.002 50.9602 219.46 51.3864 217.386 52.2386C215.312 53.0625 213.721 54.2131 212.613 55.6903C211.534 57.1676 210.994 58.8438 210.994 60.7188C210.937 62.2812 211.264 63.6449 211.974 64.8097C212.713 65.9744 213.721 66.983 215 67.8352C216.278 68.6591 217.755 69.3835 219.431 70.0085C221.107 70.6051 222.897 71.1165 224.801 71.5426L232.642 73.4176C236.448 74.2699 239.943 75.4062 243.125 76.8267C246.306 78.2472 249.062 79.9943 251.392 82.0682C253.721 84.142 255.525 86.5852 256.803 89.3977C258.11 92.2102 258.778 95.4347 258.806 99.071C258.778 104.412 257.414 109.043 254.715 112.963C252.045 116.855 248.181 119.881 243.125 122.04C238.096 124.17 232.031 125.236 224.928 125.236C217.883 125.236 211.747 124.156 206.519 121.997C201.321 119.838 197.258 116.642 194.332 112.409C191.434 108.148 189.914 102.878 189.772 96.5994H207.627C207.826 99.5256 208.664 101.969 210.142 103.929C211.647 105.861 213.65 107.324 216.15 108.318C218.678 109.284 221.534 109.767 224.715 109.767C227.84 109.767 230.553 109.312 232.855 108.403C235.184 107.494 236.988 106.23 238.267 104.611C239.545 102.991 240.184 101.131 240.184 99.0284C240.184 97.0682 239.602 95.4205 238.437 94.0852C237.301 92.75 235.625 91.6136 233.409 90.6761C231.221 89.7386 228.536 88.8864 225.355 88.1193L215.852 85.733C208.494 83.9432 202.684 81.1449 198.423 77.3381C194.161 73.5312 192.045 68.4034 192.073 61.9545C192.045 56.6705 193.451 52.054 196.292 48.1051C199.161 44.1562 203.096 41.0739 208.096 38.858C213.096 36.642 218.778 35.5341 225.142 35.5341C231.619 35.5341 237.272 36.642 242.102 38.858C246.96 41.0739 250.738 44.1562 253.437 48.1051C256.136 52.054 257.528 56.6278 257.613 61.8267H239.928ZM289.541 125.236C285.365 125.236 281.644 124.511 278.377 123.062C275.11 121.585 272.524 119.412 270.621 116.543C268.746 113.645 267.808 110.037 267.808 105.719C267.808 102.082 268.476 99.0284 269.811 96.5568C271.147 94.0852 272.965 92.0966 275.266 90.5909C277.567 89.0852 280.181 87.9489 283.107 87.1818C286.061 86.4148 289.158 85.875 292.397 85.5625C296.203 85.1648 299.272 84.7955 301.601 84.4545C303.931 84.0852 305.621 83.5455 306.672 82.8352C307.723 82.125 308.249 81.0739 308.249 79.6818V79.4261C308.249 76.7273 307.397 74.6392 305.692 73.1619C304.016 71.6847 301.629 70.946 298.533 70.946C295.266 70.946 292.666 71.6705 290.735 73.1193C288.803 74.5398 287.524 76.3295 286.899 78.4886L270.11 77.125C270.962 73.1477 272.638 69.7102 275.138 66.8125C277.638 63.8864 280.862 61.642 284.811 60.0795C288.789 58.4886 293.391 57.6932 298.618 57.6932C302.254 57.6932 305.735 58.1193 309.058 58.9716C312.411 59.8239 315.379 61.1449 317.965 62.9347C320.578 64.7244 322.638 67.0256 324.144 69.8381C325.649 72.6222 326.402 75.9602 326.402 79.8523V124H309.186V114.923H308.675C307.624 116.969 306.218 118.773 304.456 120.335C302.695 121.869 300.578 123.077 298.107 123.957C295.635 124.81 292.78 125.236 289.541 125.236ZM294.74 112.707C297.411 112.707 299.769 112.182 301.814 111.131C303.86 110.051 305.465 108.602 306.629 106.784C307.794 104.966 308.377 102.906 308.377 100.605V93.6591C307.808 94.0284 307.027 94.3693 306.033 94.6818C305.067 94.9659 303.973 95.2358 302.752 95.4915C301.53 95.7187 300.308 95.9318 299.087 96.1307C297.865 96.3011 296.757 96.4574 295.763 96.5994C293.632 96.9119 291.772 97.4091 290.181 98.0909C288.59 98.7727 287.354 99.696 286.473 100.861C285.593 101.997 285.152 103.418 285.152 105.122C285.152 107.594 286.047 109.483 287.837 110.79C289.655 112.068 291.956 112.707 294.74 112.707ZM375.685 58.5455V72.1818H335.287V58.5455H375.685ZM344.534 124V53.8153C344.534 49.071 345.458 45.1364 347.304 42.0114C349.179 38.8864 351.736 36.5426 354.975 34.9801C358.213 33.4176 361.892 32.6364 366.012 32.6364C368.796 32.6364 371.338 32.8494 373.639 33.2756C375.969 33.7017 377.702 34.0852 378.838 34.4261L375.6 48.0625C374.889 47.8352 374.009 47.6222 372.958 47.4233C371.935 47.2244 370.884 47.125 369.804 47.125C367.134 47.125 365.273 47.75 364.222 49C363.171 50.2216 362.645 51.9403 362.645 54.1562V124H344.534ZM414.261 125.278C407.528 125.278 401.732 123.915 396.875 121.188C392.045 118.432 388.323 114.54 385.71 109.511C383.096 104.455 381.789 98.4744 381.789 91.571C381.789 84.8381 383.096 78.929 385.71 73.8438C388.323 68.7585 392.002 64.7955 396.747 61.9545C401.519 59.1136 407.116 57.6932 413.536 57.6932C417.855 57.6932 421.875 58.3892 425.596 59.7812C429.346 61.1449 432.613 63.2045 435.397 65.9602C438.21 68.7159 440.397 72.1818 441.96 76.358C443.522 80.5057 444.303 85.3636 444.303 90.9318V95.9176H389.034V84.6676H427.215C427.215 82.054 426.647 79.7386 425.511 77.7216C424.375 75.7045 422.798 74.1278 420.781 72.9915C418.792 71.8267 416.477 71.2443 413.835 71.2443C411.079 71.2443 408.636 71.8835 406.505 73.1619C404.403 74.4119 402.755 76.1023 401.562 78.233C400.369 80.3352 399.758 82.679 399.73 85.2642V95.9602C399.73 99.1989 400.326 101.997 401.519 104.355C402.741 106.713 404.46 108.531 406.676 109.81C408.892 111.088 411.519 111.727 414.559 111.727C416.576 111.727 418.423 111.443 420.099 110.875C421.775 110.307 423.21 109.455 424.403 108.318C425.596 107.182 426.505 105.79 427.13 104.142L443.92 105.25C443.068 109.284 441.321 112.807 438.678 115.818C436.065 118.801 432.684 121.131 428.536 122.807C424.417 124.455 419.659 125.278 414.261 125.278ZM532.077 124V36.7273H550.529V108.787H587.943V124H532.077ZM599.822 124V58.5455H617.975V124H599.822ZM608.941 50.108C606.242 50.108 603.927 49.2131 601.995 47.4233C600.092 45.6051 599.14 43.4318 599.14 40.9034C599.14 38.4034 600.092 36.2585 601.995 34.4688C603.927 32.6506 606.242 31.7415 608.941 31.7415C611.64 31.7415 613.941 32.6506 615.845 34.4688C617.777 36.2585 618.742 38.4034 618.742 40.9034C618.742 43.4318 617.777 45.6051 615.845 47.4233C613.941 49.2131 611.64 50.108 608.941 50.108ZM650.671 86.1591V124H632.517V58.5455H649.818V70.0938H650.585C652.034 66.2869 654.463 63.2756 657.872 61.0597C661.281 58.8153 665.415 57.6932 670.273 57.6932C674.818 57.6932 678.781 58.6875 682.162 60.6761C685.543 62.6648 688.171 65.5057 690.046 69.1989C691.921 72.8636 692.858 77.2386 692.858 82.3239V124H674.705V85.5625C674.733 81.5568 673.71 78.4318 671.637 76.1875C669.563 73.9148 666.708 72.7784 663.071 72.7784C660.628 72.7784 658.469 73.304 656.594 74.3551C654.747 75.4062 653.299 76.9403 652.247 78.9574C651.225 80.946 650.699 83.3466 650.671 86.1591ZM723.615 105.165L723.657 83.3892H726.299L747.265 58.5455H768.103L739.936 91.4432H735.632L723.615 105.165ZM707.166 124V36.7273H725.319V124H707.166ZM748.075 124L728.813 95.4915L740.916 82.6648L769.339 124H748.075Z" fill="#837D7D"/>
<path d="M455.98 124V110.705L487.045 81.9403C489.687 79.3835 491.903 77.0824 493.693 75.0369C495.511 72.9915 496.889 70.9886 497.826 69.0284C498.764 67.0398 499.232 64.8949 499.232 62.5938C499.232 60.0369 498.65 57.8352 497.485 55.9886C496.321 54.1136 494.73 52.679 492.713 51.6847C490.696 50.6619 488.409 50.1506 485.852 50.1506C483.181 50.1506 480.852 50.6903 478.863 51.7699C476.875 52.8494 475.34 54.3977 474.261 56.4148C473.181 58.4318 472.642 60.8324 472.642 63.6165H455.127C455.127 57.9062 456.42 52.9489 459.005 48.7443C461.59 44.5398 465.213 41.2869 469.872 38.9858C474.531 36.6847 479.9 35.5341 485.98 35.5341C492.23 35.5341 497.67 36.642 502.301 38.858C506.96 41.0455 510.582 44.0852 513.167 47.9773C515.752 51.8693 517.045 56.3295 517.045 61.358C517.045 64.6534 516.392 67.9062 515.085 71.1165C513.806 74.3267 511.519 77.892 508.224 81.8125C504.928 85.7045 500.284 90.3778 494.289 95.8324L481.548 108.318V108.915H518.196V124H455.98Z" fill="#8BCC58"/>
<path d="M123.409 0H43.4087C21.3173 0 3.40869 17.9086 3.40869 40.0001V120C3.40869 142.092 21.3173 160 43.4087 160H123.409C145.5 160 163.409 142.092 163.409 120V40.0001C163.409 17.9086 145.5 0 123.409 0Z" fill="#7CC562"/>
<g filter="url(#filter0_d_5693_1366)">
<rect x="12.4839" y="90.4512" width="47.4728" height="30.1819" transform="rotate(-37.6696 12.4839 90.4512)" fill="#B6E7A4"/>
<path d="M126.088 39.9249L114.773 49.4503L69.4196 86.0156L59.2573 72.8263L50.2754 60.7025L27.2722 79.2482L36.2541 91.372L54.9665 116.63L63.5166 128.698L75.2629 119.228L132.363 73.1926L144.109 63.7224L126.088 39.9249Z" fill="white"/>
</g>
<path d="M123.406 0H43.4058C21.3144 0 3.40576 17.9086 3.40576 40.0001V120C3.40576 142.092 21.3144 160 43.4058 160H123.406C145.497 160 163.406 142.092 163.406 120V40.0001C163.406 17.9086 145.497 0 123.406 0Z" fill="#7CC562"/>
<g filter="url(#filter1_d_5693_1366)">
<rect x="4.35449" y="80.0176" width="57.0217" height="30.1819" transform="rotate(-38.2037 4.35449 80.0176)" fill="#837D7D"/>
<path d="M143.198 47.6041L131.883 57.1295L86.5295 93.6948L76.3672 80.5055L67.3852 68.3817L44.382 86.9274L53.364 99.0512L72.0763 124.309L80.6265 136.377L92.3728 126.907L149.473 80.8718L161.219 71.4016L143.198 47.6041Z" fill="white"/>
</g>
<path d="M123.409 0H43.4087C21.3173 0 3.40869 17.9086 3.40869 40.0001V120C3.40869 142.092 21.3173 160 43.4087 160H123.409C145.5 160 163.409 142.092 163.409 120V40.0001C163.409 17.9086 145.5 0 123.409 0Z" fill="#7CC562"/>
<g filter="url(#filter2_d_5693_1366)">
<rect x="12.4839" y="90.4512" width="47.4728" height="30.1819" transform="rotate(-37.6696 12.4839 90.4512)" fill="#B6E7A4"/>
<path d="M126.088 39.9249L114.773 49.4503L69.4196 86.0156L59.2573 72.8263L50.2754 60.7025L27.2722 79.2482L36.2541 91.372L54.9665 116.63L63.5166 128.698L75.2629 119.228L132.363 73.1926L144.109 63.7224L126.088 39.9249Z" fill="white"/>
</g>
<path d="M123.406 0H43.4058C21.3144 0 3.40576 17.9086 3.40576 40.0001V120C3.40576 142.092 21.3144 160 43.4058 160H123.406C145.497 160 163.406 142.092 163.406 120V40.0001C163.406 17.9086 145.497 0 123.406 0Z" fill="#7CC562"/>
<path d="M58.8978 137C63.2169 137.008 67.4951 136.154 71.4864 134.489C75.4777 132.823 79.1036 130.378 82.1556 127.294L97.3647 111.946C101.023 108.256 103.767 103.746 105.373 98.7841C106.98 93.8221 107.404 88.5477 106.611 83.3892C105.819 78.2307 103.831 73.3337 100.811 69.096C97.79 64.8582 93.8214 61.3992 89.2272 59L85.5057 62.7557C83.9158 64.3354 82.9121 66.4185 82.6628 68.6559C85.8645 70.0609 88.6773 72.2344 90.8562 74.9871C93.0351 77.7399 94.5141 80.9884 95.1644 84.4499C95.8147 87.9114 95.6166 91.4808 94.5873 94.8473C93.558 98.2138 91.7287 101.275 89.2588 103.765L74.0497 119.114C70.0304 123.164 64.5817 125.439 58.9012 125.437C53.2208 125.435 47.7736 123.157 43.7568 119.104C39.7401 115.051 37.4826 109.554 37.4805 103.822C37.4785 98.0894 39.732 92.591 43.7459 88.5348L49.9484 82.2754C48.5944 77.5113 48.0284 72.5544 48.2734 67.6044L35.64 80.3537C31.0378 84.9936 27.9032 90.907 26.6329 97.3454C25.3626 103.784 26.0137 110.458 28.5038 116.523C30.9939 122.587 35.211 127.77 40.6214 131.416C46.0319 135.061 52.3923 137.004 58.8978 137Z" fill="#837D7D"/>
<path d="M84.8388 31.7186L69.6253 47.0623C65.9704 50.7544 63.2294 55.2631 61.6246 60.223C60.0198 65.1829 59.5962 70.4544 60.3883 75.6102C61.1803 80.766 63.1657 85.661 66.1835 89.8985C69.2012 94.136 73.1665 97.5966 77.7578 100L81.4867 96.2388C83.0632 94.6484 84.0616 92.5682 84.3206 90.3345C81.1211 88.9274 78.3109 86.7534 76.1342 84.0014C73.9575 81.2494 72.4802 78.0028 71.8309 74.5438C71.1816 71.0848 71.3799 67.5182 72.4085 64.1541C73.4371 60.79 75.2649 57.7303 77.7329 55.2409L92.9464 39.8971C94.936 37.8875 97.2988 36.2931 99.8996 35.2049C102.5 34.1167 105.288 33.556 108.104 33.555C110.92 33.554 113.708 34.1126 116.31 35.1989C118.911 36.2852 121.275 37.8779 123.266 39.886C125.257 41.8941 126.837 44.2783 127.914 46.9022C128.991 49.5262 129.545 52.3385 129.544 55.1785C129.543 58.0184 128.987 60.8304 127.908 63.4536C126.83 66.0769 125.249 68.46 123.257 70.4668L117.052 76.7249C118.406 81.4872 118.972 86.4422 118.727 91.3904L131.364 78.6448C137.534 72.4221 141 63.9822 141 55.1819C141 46.3815 137.534 37.9416 131.364 31.7188C125.195 25.496 116.827 22.0001 108.102 22C99.3764 21.9999 91.0085 25.4958 84.8388 31.7186Z" fill="#837D7D"/>
<defs>
<filter id="filter0_d_5693_1366" x="8.48389" y="39.9248" width="139.625" height="96.7734" filterUnits="userSpaceOnUse" color-interpolation-filters="sRGB">
<feFlood flood-opacity="0" result="BackgroundImageFix"/>
<feColorMatrix in="SourceAlpha" type="matrix" values="0 0 0 0 0 0 0 0 0 0 0 0 0 0 0 0 0 0 127 0" result="hardAlpha"/>
<feOffset dy="4"/>
<feGaussianBlur stdDeviation="2"/>
<feComposite in2="hardAlpha" operator="out"/>
<feColorMatrix type="matrix" values="0 0 0 0 0 0 0 0 0 0 0 0 0 0 0 0 0 0 0.25 0"/>
<feBlend mode="normal" in2="BackgroundImageFix" result="effect1_dropShadow_5693_1366"/>
<feBlend mode="normal" in="SourceGraphic" in2="effect1_dropShadow_5693_1366" result="shape"/>
</filter>
<filter id="filter1_d_5693_1366" x="0.354492" y="44.752" width="164.865" height="99.6255" filterUnits="userSpaceOnUse" color-interpolation-filters="sRGB">
<feFlood flood-opacity="0" result="BackgroundImageFix"/>
<feColorMatrix in="SourceAlpha" type="matrix" values="0 0 0 0 0 0 0 0 0 0 0 0 0 0 0 0 0 0 127 0" result="hardAlpha"/>
<feOffset dy="4"/>
<feGaussianBlur stdDeviation="2"/>
<feComposite in2="hardAlpha" operator="out"/>
<feColorMatrix type="matrix" values="0 0 0 0 0 0 0 0 0 0 0 0 0 0 0 0 0 0 0.25 0"/>
<feBlend mode="normal" in2="BackgroundImageFix" result="effect1_dropShadow_5693_1366"/>
<feBlend mode="normal" in="SourceGraphic" in2="effect1_dropShadow_5693_1366" result="shape"/>
</filter>
<filter id="filter2_d_5693_1366" x="8.48389" y="39.9248" width="139.625" height="96.7734" filterUnits="userSpaceOnUse" color-interpolation-filters="sRGB">
<feFlood flood-opacity="0" result="BackgroundImageFix"/>
<feColorMatrix in="SourceAlpha" type="matrix" values="0 0 0 0 0 0 0 0 0 0 0 0 0 0 0 0 0 0 127 0" result="hardAlpha"/>
<feOffset dy="4"/>
<feGaussianBlur stdDeviation="2"/>
<feComposite in2="hardAlpha" operator="out"/>
<feColorMatrix type="matrix" values="0 0 0 0 0 0 0 0 0 0 0 0 0 0 0 0 0 0 0.25 0"/>
<feBlend mode="normal" in2="BackgroundImageFix" result="effect1_dropShadow_5693_1366"/>
<feBlend mode="normal" in="SourceGraphic" in2="effect1_dropShadow_5693_1366" result="shape"/>
</filter>
</defs>
</svg>
