<svg width="781" height="160" viewBox="0 0 781 160" fill="none" xmlns="http://www.w3.org/2000/svg">
<path d="M239.929 61.8267C239.588 58.3892 238.125 55.7187 235.54 53.8153C232.955 51.9119 229.446 50.9602 225.014 50.9602C222.003 50.9602 219.46 51.3864 217.386 52.2386C215.313 53.0625 213.722 54.2131 212.614 55.6903C211.534 57.1676 210.994 58.8438 210.994 60.7188C210.938 62.2812 211.264 63.6449 211.974 64.8097C212.713 65.9744 213.722 66.983 215 67.8352C216.278 68.6591 217.756 69.3835 219.432 70.0085C221.108 70.6051 222.898 71.1165 224.801 71.5426L232.642 73.4176C236.449 74.2699 239.943 75.4062 243.125 76.8267C246.307 78.2472 249.063 79.9943 251.392 82.0682C253.722 84.142 255.526 86.5852 256.804 89.3977C258.111 92.2102 258.778 95.4347 258.807 99.071C258.778 104.412 257.415 109.043 254.716 112.963C252.045 116.855 248.182 119.881 243.125 122.04C238.097 124.17 232.031 125.236 224.929 125.236C217.884 125.236 211.747 124.156 206.52 121.997C201.321 119.838 197.259 116.642 194.332 112.409C191.435 108.148 189.915 102.878 189.773 96.5994H207.628C207.827 99.5256 208.665 101.969 210.142 103.929C211.648 105.861 213.651 107.324 216.151 108.318C218.679 109.284 221.534 109.767 224.716 109.767C227.841 109.767 230.554 109.312 232.855 108.403C235.185 107.494 236.989 106.23 238.267 104.611C239.545 102.991 240.185 101.131 240.185 99.0284C240.185 97.0682 239.602 95.4205 238.438 94.0852C237.301 92.75 235.625 91.6136 233.409 90.6761C231.222 89.7386 228.537 88.8864 225.355 88.1193L215.852 85.733C208.494 83.9432 202.685 81.1449 198.423 77.3381C194.162 73.5312 192.045 68.4034 192.074 61.9545C192.045 56.6705 193.452 52.054 196.293 48.1051C199.162 44.1562 203.097 41.0739 208.097 38.858C213.097 36.642 218.778 35.5341 225.142 35.5341C231.619 35.5341 237.273 36.642 242.102 38.858C246.96 41.0739 250.739 44.1562 253.438 48.1051C256.136 52.054 257.528 56.6278 257.614 61.8267H239.929ZM289.542 125.236C285.366 125.236 281.644 124.511 278.377 123.062C275.11 121.585 272.525 119.412 270.621 116.543C268.746 113.645 267.809 110.037 267.809 105.719C267.809 102.082 268.477 99.0284 269.812 96.5568C271.147 94.0852 272.965 92.0966 275.266 90.5909C277.567 89.0852 280.181 87.9489 283.107 87.1818C286.062 86.4148 289.158 85.875 292.397 85.5625C296.204 85.1648 299.272 84.7955 301.602 84.4545C303.931 84.0852 305.621 83.5455 306.673 82.8352C307.724 82.125 308.249 81.0739 308.249 79.6818V79.4261C308.249 76.7273 307.397 74.6392 305.692 73.1619C304.016 71.6847 301.63 70.946 298.533 70.946C295.266 70.946 292.667 71.6705 290.735 73.1193C288.803 74.5398 287.525 76.3295 286.9 78.4886L270.11 77.125C270.962 73.1477 272.638 69.7102 275.138 66.8125C277.638 63.8864 280.863 61.642 284.812 60.0795C288.789 58.4886 293.391 57.6932 298.619 57.6932C302.255 57.6932 305.735 58.1193 309.059 58.9716C312.411 59.8239 315.38 61.1449 317.965 62.9347C320.579 64.7244 322.638 67.0256 324.144 69.8381C325.65 72.6222 326.403 75.9602 326.403 79.8523V124H309.187V114.923H308.675C307.624 116.969 306.218 118.773 304.457 120.335C302.695 121.869 300.579 123.077 298.107 123.957C295.636 124.81 292.781 125.236 289.542 125.236ZM294.741 112.707C297.411 112.707 299.769 112.182 301.815 111.131C303.86 110.051 305.465 108.602 306.63 106.784C307.795 104.966 308.377 102.906 308.377 100.605V93.6591C307.809 94.0284 307.028 94.3693 306.033 94.6818C305.067 94.9659 303.974 95.2358 302.752 95.4915C301.531 95.7187 300.309 95.9318 299.087 96.1307C297.866 96.3011 296.758 96.4574 295.763 96.5994C293.633 96.9119 291.772 97.4091 290.181 98.0909C288.59 98.7727 287.354 99.696 286.474 100.861C285.593 101.997 285.153 103.418 285.153 105.122C285.153 107.594 286.048 109.483 287.837 110.79C289.656 112.068 291.957 112.707 294.741 112.707ZM375.685 58.5455V72.1818H335.288V58.5455H375.685ZM344.535 124V53.8153C344.535 49.071 345.458 45.1364 347.305 42.0114C349.18 38.8864 351.737 36.5426 354.975 34.9801C358.214 33.4176 361.893 32.6364 366.012 32.6364C368.796 32.6364 371.339 32.8494 373.64 33.2756C375.969 33.7017 377.702 34.0852 378.839 34.4261L375.6 48.0625C374.89 47.8352 374.009 47.6222 372.958 47.4233C371.935 47.2244 370.884 47.125 369.805 47.125C367.134 47.125 365.273 47.75 364.222 49C363.171 50.2216 362.646 51.9403 362.646 54.1562V124H344.535ZM414.261 125.278C407.528 125.278 401.733 123.915 396.875 121.188C392.045 118.432 388.324 114.54 385.71 109.511C383.097 104.455 381.79 98.4744 381.79 91.571C381.79 84.8381 383.097 78.929 385.71 73.8438C388.324 68.7585 392.003 64.7955 396.747 61.9545C401.52 59.1136 407.116 57.6932 413.537 57.6932C417.855 57.6932 421.875 58.3892 425.597 59.7812C429.347 61.1449 432.614 63.2045 435.398 65.9602C438.21 68.7159 440.398 72.1818 441.96 76.358C443.523 80.5057 444.304 85.3636 444.304 90.9318V95.9176H389.034V84.6676H427.216C427.216 82.054 426.648 79.7386 425.511 77.7216C424.375 75.7045 422.798 74.1278 420.781 72.9915C418.793 71.8267 416.477 71.2443 413.835 71.2443C411.08 71.2443 408.636 71.8835 406.506 73.1619C404.403 74.4119 402.756 76.1023 401.562 78.233C400.369 80.3352 399.759 82.679 399.73 85.2642V95.9602C399.73 99.1989 400.327 101.997 401.52 104.355C402.741 106.713 404.46 108.531 406.676 109.81C408.892 111.088 411.52 111.727 414.56 111.727C416.577 111.727 418.423 111.443 420.099 110.875C421.776 110.307 423.21 109.455 424.403 108.318C425.597 107.182 426.506 105.79 427.131 104.142L443.92 105.25C443.068 109.284 441.321 112.807 438.679 115.818C436.065 118.801 432.685 121.131 428.537 122.807C424.418 124.455 419.659 125.278 414.261 125.278ZM532.077 124V36.7273H550.529V108.787H587.944V124H532.077ZM599.822 124V58.5455H617.976V124H599.822ZM608.942 50.108C606.243 50.108 603.928 49.2131 601.996 47.4233C600.092 45.6051 599.141 43.4318 599.141 40.9034C599.141 38.4034 600.092 36.2585 601.996 34.4688C603.928 32.6506 606.243 31.7415 608.942 31.7415C611.641 31.7415 613.942 32.6506 615.845 34.4688C617.777 36.2585 618.743 38.4034 618.743 40.9034C618.743 43.4318 617.777 45.6051 615.845 47.4233C613.942 49.2131 611.641 50.108 608.942 50.108ZM650.671 86.1591V124H632.518V58.5455H649.819V70.0938H650.586C652.035 66.2869 654.464 63.2756 657.873 61.0597C661.282 58.8153 665.415 57.6932 670.273 57.6932C674.819 57.6932 678.782 58.6875 682.163 60.6761C685.543 62.6648 688.171 65.5057 690.046 69.1989C691.921 72.8636 692.859 77.2386 692.859 82.3239V124H674.705V85.5625C674.734 81.5568 673.711 78.4318 671.637 76.1875C669.563 73.9148 666.708 72.7784 663.072 72.7784C660.629 72.7784 658.469 73.304 656.594 74.3551C654.748 75.4062 653.299 76.9403 652.248 78.9574C651.225 80.946 650.7 83.3466 650.671 86.1591ZM723.615 105.165L723.658 83.3892H726.3L747.266 58.5455H768.104L739.936 91.4432H735.632L723.615 105.165ZM707.166 124V36.7273H725.32V124H707.166ZM748.075 124L728.814 95.4915L740.916 82.6648L769.339 124H748.075Z" fill="#FFF8F8"/>
<path d="M455.98 124V110.705L487.045 81.9403C489.688 79.3835 491.903 77.0824 493.693 75.0369C495.511 72.9915 496.889 70.9886 497.827 69.0284C498.764 67.0398 499.233 64.8949 499.233 62.5938C499.233 60.0369 498.651 57.8352 497.486 55.9886C496.321 54.1136 494.73 52.679 492.713 51.6847C490.696 50.6619 488.409 50.1506 485.852 50.1506C483.182 50.1506 480.852 50.6903 478.864 51.7699C476.875 52.8494 475.341 54.3977 474.261 56.4148C473.182 58.4318 472.642 60.8324 472.642 63.6165H455.128C455.128 57.9062 456.42 52.9489 459.006 48.7443C461.591 44.5398 465.213 41.2869 469.872 38.9858C474.531 36.6847 479.901 35.5341 485.98 35.5341C492.23 35.5341 497.67 36.642 502.301 38.858C506.96 41.0455 510.582 44.0852 513.168 47.9773C515.753 51.8693 517.045 56.3295 517.045 61.358C517.045 64.6534 516.392 67.9062 515.085 71.1165C513.807 74.3267 511.52 77.892 508.224 81.8125C504.929 85.7045 500.284 90.3778 494.29 95.8324L481.548 108.318V108.915H518.196V124H455.98Z" fill="#8BCC58"/>
<path d="M123.409 0H43.4092C21.3178 0 3.40918 17.9086 3.40918 40.0001V120C3.40918 142.092 21.3178 160 43.4092 160H123.409C145.501 160 163.409 142.092 163.409 120V40.0001C163.409 17.9086 145.501 0 123.409 0Z" fill="white"/>
<g filter="url(#filter0_d_5700_1317)">
<rect x="12.4844" y="90.4512" width="47.4728" height="30.1819" transform="rotate(-37.6696 12.4844 90.4512)" fill="#B6E7A4"/>
<path d="M126.089 39.9249L114.774 49.4503L69.4206 86.0156L59.2583 72.8263L50.2763 60.7025L27.2731 79.2482L36.2551 91.372L54.9675 116.63L63.5176 128.698L75.2639 119.228L132.364 73.1926L144.11 63.7224L126.089 39.9249Z" fill="white"/>
</g>
<path d="M123.405 0H43.4053C21.3139 0 3.40527 17.9086 3.40527 40.0001V120C3.40527 142.092 21.3139 160 43.4053 160H123.405C145.497 160 163.405 142.092 163.405 120V40.0001C163.405 17.9086 145.497 0 123.405 0Z" fill="white"/>
<g filter="url(#filter1_d_5700_1317)">
<rect x="4.35449" y="80.0176" width="57.0217" height="30.1819" transform="rotate(-38.2037 4.35449 80.0176)" fill="#645D5D"/>
<path d="M143.197 47.6041L131.883 57.1295L86.529 93.6948L76.3667 80.5055L67.3847 68.3817L44.3815 86.9274L53.3635 99.0512L72.0759 124.309L80.626 136.377L92.3723 126.907L149.472 80.8718L161.219 71.4016L143.197 47.6041Z" fill="white"/>
</g>
<path d="M123.408 0H43.4082C21.3168 0 3.4082 17.9086 3.4082 40.0001V120C3.4082 142.092 21.3168 160 43.4082 160H123.408C145.5 160 163.408 142.092 163.408 120V40.0001C163.408 17.9086 145.5 0 123.408 0Z" fill="white"/>
<g filter="url(#filter2_d_5700_1317)">
<rect x="12.4834" y="90.4512" width="47.4728" height="30.1819" transform="rotate(-37.6696 12.4834 90.4512)" fill="#B6E7A4"/>
<path d="M126.088 39.9249L114.773 49.4503L69.4196 86.0156L59.2573 72.8263L50.2754 60.7025L27.2722 79.2482L36.2541 91.372L54.9665 116.63L63.5166 128.698L75.2629 119.228L132.363 73.1926L144.109 63.7224L126.088 39.9249Z" fill="white"/>
</g>
<path d="M123.405 0H43.4053C21.3139 0 3.40527 17.9086 3.40527 40.0001V120C3.40527 142.092 21.3139 160 43.4053 160H123.405C145.497 160 163.405 142.092 163.405 120V40.0001C163.405 17.9086 145.497 0 123.405 0Z" fill="white"/>
<path d="M58.8978 137C63.2169 137.008 67.4951 136.154 71.4864 134.489C75.4777 132.823 79.1036 130.378 82.1556 127.294L97.3647 111.946C101.023 108.256 103.767 103.746 105.373 98.7841C106.98 93.8221 107.404 88.5477 106.611 83.3892C105.819 78.2307 103.831 73.3337 100.811 69.096C97.79 64.8582 93.8214 61.3992 89.2272 59L85.5057 62.7557C83.9158 64.3354 82.9121 66.4185 82.6628 68.6559C85.8645 70.0609 88.6773 72.2344 90.8562 74.9871C93.0351 77.7399 94.5141 80.9884 95.1644 84.4499C95.8147 87.9114 95.6166 91.4808 94.5873 94.8473C93.558 98.2138 91.7287 101.275 89.2588 103.765L74.0497 119.114C70.0304 123.164 64.5817 125.439 58.9012 125.437C53.2208 125.435 47.7736 123.157 43.7568 119.104C39.7401 115.051 37.4826 109.554 37.4805 103.822C37.4785 98.0894 39.732 92.591 43.7459 88.5348L49.9484 82.2754C48.5944 77.5113 48.0284 72.5544 48.2734 67.6044L35.64 80.3537C31.0378 84.9936 27.9032 90.907 26.6329 97.3454C25.3626 103.784 26.0137 110.458 28.5038 116.523C30.9939 122.587 35.211 127.77 40.6214 131.416C46.0319 135.061 52.3923 137.004 58.8978 137Z" fill="#645D5D"/>
<path d="M84.8388 31.7186L69.6253 47.0623C65.9704 50.7544 63.2294 55.2631 61.6246 60.223C60.0198 65.1829 59.5962 70.4544 60.3883 75.6102C61.1803 80.766 63.1657 85.661 66.1835 89.8985C69.2012 94.136 73.1665 97.5966 77.7578 100L81.4867 96.2388C83.0632 94.6484 84.0616 92.5682 84.3206 90.3345C81.1211 88.9274 78.3109 86.7534 76.1342 84.0014C73.9575 81.2494 72.4802 78.0028 71.8309 74.5438C71.1816 71.0848 71.3799 67.5182 72.4085 64.1541C73.4371 60.79 75.2649 57.7303 77.7329 55.2409L92.9464 39.8971C94.936 37.8875 97.2988 36.2931 99.8996 35.2049C102.5 34.1167 105.288 33.556 108.104 33.555C110.92 33.554 113.708 34.1126 116.31 35.1989C118.911 36.2852 121.275 37.8779 123.266 39.886C125.257 41.8941 126.837 44.2783 127.914 46.9022C128.991 49.5262 129.545 52.3385 129.544 55.1785C129.543 58.0184 128.987 60.8304 127.908 63.4536C126.83 66.0769 125.249 68.46 123.257 70.4668L117.052 76.7249C118.406 81.4872 118.972 86.4422 118.727 91.3904L131.364 78.6448C137.534 72.4221 141 63.9822 141 55.1819C141 46.3815 137.534 37.9416 131.364 31.7188C125.195 25.496 116.827 22.0001 108.102 22C99.3764 21.9999 91.0085 25.4958 84.8388 31.7186Z" fill="#645D5D"/>
<defs>
<filter id="filter0_d_5700_1317" x="8.48438" y="39.9248" width="139.626" height="96.7734" filterUnits="userSpaceOnUse" color-interpolation-filters="sRGB">
<feFlood flood-opacity="0" result="BackgroundImageFix"/>
<feColorMatrix in="SourceAlpha" type="matrix" values="0 0 0 0 0 0 0 0 0 0 0 0 0 0 0 0 0 0 127 0" result="hardAlpha"/>
<feOffset dy="4"/>
<feGaussianBlur stdDeviation="2"/>
<feComposite in2="hardAlpha" operator="out"/>
<feColorMatrix type="matrix" values="0 0 0 0 0 0 0 0 0 0 0 0 0 0 0 0 0 0 0.25 0"/>
<feBlend mode="normal" in2="BackgroundImageFix" result="effect1_dropShadow_5700_1317"/>
<feBlend mode="normal" in="SourceGraphic" in2="effect1_dropShadow_5700_1317" result="shape"/>
</filter>
<filter id="filter1_d_5700_1317" x="0.354492" y="44.752" width="164.864" height="99.6255" filterUnits="userSpaceOnUse" color-interpolation-filters="sRGB">
<feFlood flood-opacity="0" result="BackgroundImageFix"/>
<feColorMatrix in="SourceAlpha" type="matrix" values="0 0 0 0 0 0 0 0 0 0 0 0 0 0 0 0 0 0 127 0" result="hardAlpha"/>
<feOffset dy="4"/>
<feGaussianBlur stdDeviation="2"/>
<feComposite in2="hardAlpha" operator="out"/>
<feColorMatrix type="matrix" values="0 0 0 0 0 0 0 0 0 0 0 0 0 0 0 0 0 0 0.25 0"/>
<feBlend mode="normal" in2="BackgroundImageFix" result="effect1_dropShadow_5700_1317"/>
<feBlend mode="normal" in="SourceGraphic" in2="effect1_dropShadow_5700_1317" result="shape"/>
</filter>
<filter id="filter2_d_5700_1317" x="8.4834" y="39.9248" width="139.626" height="96.7734" filterUnits="userSpaceOnUse" color-interpolation-filters="sRGB">
<feFlood flood-opacity="0" result="BackgroundImageFix"/>
<feColorMatrix in="SourceAlpha" type="matrix" values="0 0 0 0 0 0 0 0 0 0 0 0 0 0 0 0 0 0 127 0" result="hardAlpha"/>
<feOffset dy="4"/>
<feGaussianBlur stdDeviation="2"/>
<feComposite in2="hardAlpha" operator="out"/>
<feColorMatrix type="matrix" values="0 0 0 0 0 0 0 0 0 0 0 0 0 0 0 0 0 0 0.25 0"/>
<feBlend mode="normal" in2="BackgroundImageFix" result="effect1_dropShadow_5700_1317"/>
<feBlend mode="normal" in="SourceGraphic" in2="effect1_dropShadow_5700_1317" result="shape"/>
</filter>
</defs>
</svg>
