<svg width="191" height="70" viewBox="0 0 191 70" fill="none" xmlns="http://www.w3.org/2000/svg">
<g clip-path="url(#clip0_5704_1329)">
<path d="M182.239 0H7.93825C3.55408 0 0 3.72445 0 8.3188V60.8188C0 65.4131 3.55408 69.1376 7.93825 69.1376H182.239C186.623 69.1376 190.178 65.4131 190.178 60.8188V8.3188C190.178 3.72445 186.623 0 182.239 0Z" fill="#3B3B43"/>
<path d="M182.651 0.431152H8.35036C3.96619 0.431152 0.412109 4.15561 0.412109 8.74995V61.2499C0.412109 65.8443 3.96619 69.5687 8.35036 69.5687H182.651C187.036 69.5687 190.59 65.8443 190.59 61.2499V8.74995C190.59 4.15561 187.036 0.431152 182.651 0.431152Z" stroke="white" stroke-width="0.788479"/>
<path fill-rule="evenodd" clip-rule="evenodd" d="M53.8625 10.0373C50.9141 7.08887 45.5405 7.44107 39.9415 10.4599C39.1055 10.9099 39.1681 12.7579 39.9595 13.2413C44.3079 15.9311 47.9691 19.5979 50.6525 23.9503C51.1337 24.7423 53.0031 24.7695 53.4399 23.9583C53.3371 23.7671 53.2313 23.5762 53.1225 23.3857C53.2308 23.5762 53.3366 23.7671 53.4399 23.9583C56.4587 18.3593 56.8109 12.9857 53.8625 10.0373ZM47.6315 16.2683C46.0301 14.6585 44.2756 13.2086 42.3929 11.9393C44.5605 10.9369 46.6253 10.3995 48.3743 10.3995C49.9381 10.3995 51.2503 10.8283 52.1599 11.7379C54.0899 13.6679 53.8605 17.4033 51.9607 21.5071C50.6896 19.6255 49.2398 17.8711 47.6315 16.2683Z" fill="#FFC750"/>
<path fill-rule="evenodd" clip-rule="evenodd" d="M55.1641 27.9954C54.7175 26.5984 54.14 25.2467 53.4393 23.9582C52.9965 23.135 51.1315 23.1598 50.6519 23.9502C49.3221 26.125 47.7362 28.1325 45.9283 29.9296C44.1348 31.7385 42.1307 33.3257 39.9591 34.6572C39.1675 35.1406 39.1319 37.0038 39.9411 37.4384C42.9215 39.0464 45.8379 39.8978 48.3597 39.8978C50.5735 39.8978 52.4833 39.2418 53.8619 37.863C56.0195 35.7056 56.4803 32.2018 55.1641 27.9954ZM52.1593 36.1604C50.2293 38.0904 46.4959 37.859 42.3923 35.9592C44.275 34.6899 46.0295 33.2401 47.6309 31.6302C49.24 30.0305 50.6905 28.2787 51.9621 26.3994C53.8599 30.5012 54.0893 34.2324 52.1593 36.1604Z" fill="#FF6895"/>
<path fill-rule="evenodd" clip-rule="evenodd" d="M39.9416 10.46C38.6529 9.75836 37.3004 9.18083 35.9024 8.73522C31.6982 7.41922 28.1942 7.87982 26.0368 10.0372C24.6582 11.416 24.002 13.326 24.002 15.54C24.002 18.0618 24.8534 20.98 26.4594 23.9606C26.8962 24.7698 28.7594 24.7332 29.2428 23.9406C31.9331 19.5883 35.603 15.9247 39.9598 13.2416C40.7464 12.7636 40.7628 10.901 39.9418 10.4602L39.9416 10.46ZM27.9406 21.5072C26.0406 17.4034 25.8094 13.668 27.7394 11.738C29.2308 10.2466 31.8754 9.99502 35.184 11.0336C35.9763 11.2842 36.752 11.5847 37.5064 11.9332C33.7422 14.4924 30.4965 17.7409 27.9406 21.5072Z" fill="#5FC5A6"/>
<path fill-rule="evenodd" clip-rule="evenodd" d="M39.9597 34.6571C37.7808 33.3274 35.7698 31.7402 33.9701 29.9299C32.1597 28.1303 30.5724 26.1194 29.2425 23.9405C28.7629 23.1545 26.8999 23.1395 26.4591 23.9605C25.759 25.2483 25.1821 26.5994 24.7363 27.9957C23.4181 32.2021 23.8809 35.7059 26.0363 37.8633C27.3889 39.2139 29.2687 39.9001 31.5187 39.9001C33.0087 39.8776 34.4866 39.6292 35.9021 39.1635C37.2998 38.717 38.6522 38.1395 39.9413 37.4387C40.5913 37.0907 40.7453 35.1369 39.9593 34.6573L39.9597 34.6571ZM35.1837 36.8671C31.8751 37.9033 29.2307 37.6519 27.7393 36.1605C26.2479 34.6693 25.9963 32.0245 27.0329 28.7159C27.2832 27.9242 27.5837 27.1491 27.9325 26.3955C29.2061 28.2761 30.6585 30.0292 32.2695 31.6303C33.8698 33.2423 35.6237 34.6942 37.5063 35.9653C36.7523 36.3153 35.9765 36.6165 35.1839 36.8669L35.1837 36.8671Z" fill="#5666F6"/>
<path fill-rule="evenodd" clip-rule="evenodd" d="M34.5781 23.8045L39.9497 15.3635L45.3213 23.8045L39.9497 26.8741L34.5781 23.8045Z" fill="white"/>
<path fill-rule="evenodd" clip-rule="evenodd" d="M34.5781 25.2463L39.9497 28.3157L45.3213 25.2463L39.9497 32.5363L34.5781 25.2463Z" fill="white"/>
<path fill-rule="evenodd" clip-rule="evenodd" d="M42.3925 11.9392C41.5582 12.3285 40.7459 12.7632 39.9593 13.2414C39.1676 12.7579 38.3485 12.3212 37.5059 11.9334C38.2924 11.4017 39.1051 10.91 39.9411 10.46C40.7623 10.9008 41.5794 11.3938 42.3925 11.9392Z" fill="#5F9A34"/>
<path fill-rule="evenodd" clip-rule="evenodd" d="M53.4397 23.9583C52.9877 24.7958 52.4947 25.6105 51.9625 26.3995C51.5709 25.5597 51.1335 24.7421 50.6523 23.9503C51.132 23.16 51.5686 22.3444 51.9603 21.5071C52.5038 22.318 52.9969 23.1351 53.4397 23.9583Z" fill="#FF512F"/>
<path fill-rule="evenodd" clip-rule="evenodd" d="M42.3925 35.9595C42.2235 36.0743 42.0545 36.1849 41.8853 36.2935C41.2528 36.701 40.6043 37.0831 39.9413 37.4387C39.1321 37.004 38.3203 36.5129 37.5059 35.9655C38.3484 35.5777 39.1676 35.1409 39.9593 34.6575C40.7451 35.1371 41.5575 35.5718 42.3925 35.9595Z" fill="#552990"/>
<path fill-rule="evenodd" clip-rule="evenodd" d="M29.2424 23.94C28.759 24.7327 28.3216 25.5526 27.9322 26.3954C27.4021 25.608 26.9104 24.7953 26.459 23.9602C26.9118 23.1184 27.4062 22.2996 27.9402 21.5068C28.3279 22.3418 28.7628 23.1542 29.2424 23.94Z" fill="#204FA0"/>
<path d="M164.785 30.6598V31.993C164.553 32.1296 164.288 32.2005 164.018 32.1982C163.484 32.2109 162.962 32.0432 162.535 31.7221C162.108 31.4011 161.802 30.9455 161.666 30.429C160.948 31.2033 160.016 31.7456 158.988 31.9864C157.961 32.2273 156.885 32.1556 155.898 31.7807C154.911 31.4057 154.059 30.7446 153.451 29.882C152.843 29.0194 152.506 27.9948 152.484 26.9396C152.462 25.8843 152.756 24.8466 153.328 23.9594C153.899 23.0723 154.723 22.3762 155.693 21.9604C156.663 21.5447 157.736 21.4282 158.772 21.626C159.809 21.8238 160.763 22.3269 161.512 23.0706V21.7374H163.098V29.3266C163.098 30.2752 163.584 30.6598 164.146 30.6598H164.785ZM161.512 26.8652C161.51 26.1273 161.29 25.4065 160.878 24.7939C160.467 24.1813 159.883 23.7044 159.201 23.4234C158.518 23.1424 157.768 23.07 157.044 23.2152C156.321 23.3604 155.657 23.7167 155.136 24.2392C154.615 24.7617 154.26 25.4269 154.117 26.1508C153.974 26.8747 154.048 27.6248 154.331 28.3064C154.614 28.9879 155.092 29.5704 155.706 29.9801C156.32 30.3899 157.041 30.6086 157.779 30.6086C158.27 30.6079 158.756 30.5106 159.209 30.3221C159.663 30.1336 160.074 29.8577 160.421 29.5101C160.768 29.1625 161.042 28.75 161.23 28.2962C161.417 27.8423 161.513 27.3561 161.512 26.8652ZM166.784 16.5322H168.45V32.1988H166.784V16.5322ZM150.128 26.7962C150.132 27.8565 149.824 28.8946 149.242 29.7809C148.66 30.6673 147.83 31.3628 146.856 31.7808C145.886 32.1914 144.815 32.3022 143.781 32.0989C142.748 31.8956 141.799 31.3875 141.057 30.6402V31.991H139.468V16.199H141.057V22.952C141.799 22.2046 142.748 21.6966 143.781 21.4933C144.815 21.29 145.886 21.4008 146.856 21.8114C147.83 22.2293 148.66 22.9249 149.242 23.8113C149.824 24.6977 150.132 25.7358 150.128 26.7962ZM148.539 26.7962C148.529 26.0584 148.301 25.34 147.884 24.7313C147.467 24.1227 146.879 23.651 146.195 23.3755C145.51 23.1 144.76 23.0331 144.037 23.1831C143.315 23.3332 142.653 23.6935 142.134 24.2188C141.616 24.744 141.265 25.4108 141.125 26.1352C140.984 26.8596 141.061 27.6094 141.346 28.2901C141.631 28.9708 142.11 29.5522 142.725 29.9611C143.339 30.37 144.06 30.5882 144.798 30.5882C145.291 30.5892 145.779 30.4919 146.234 30.3018C146.689 30.1117 147.101 29.8327 147.447 29.4812C148.151 28.7653 148.544 27.8002 148.539 26.7962ZM125.81 26.8656C125.812 25.6332 126.24 24.4394 127.023 23.4875C127.805 22.5357 128.894 21.8846 130.103 21.6451C131.312 21.4057 132.566 21.5928 133.653 22.1744C134.739 22.7561 135.59 23.6965 136.061 24.8353C136.532 25.9741 136.594 27.241 136.235 28.4201C135.877 29.5992 135.121 30.6177 134.096 31.302C133.071 31.9863 131.841 32.2941 130.614 32.173C129.388 32.052 128.242 31.5095 127.37 30.638C126.875 30.1425 126.483 29.5543 126.215 28.907C125.947 28.2597 125.81 27.566 125.81 26.8656ZM134.881 26.8656C134.881 26.1257 134.661 25.4027 134.25 24.7877C133.838 24.1728 133.254 23.6937 132.57 23.4109C131.886 23.1281 131.134 23.0543 130.409 23.199C129.683 23.3436 129.017 23.7001 128.494 24.2234C127.971 24.7467 127.615 25.4133 127.471 26.139C127.326 26.8646 127.401 27.6167 127.684 28.3002C127.967 28.9837 128.447 29.5679 129.062 29.9788C129.677 30.3898 130.4 30.6092 131.14 30.6092C131.631 30.609 132.118 30.5121 132.572 30.3238C133.026 30.1356 133.439 29.8598 133.786 29.5122C134.133 29.1646 134.409 28.7519 134.597 28.2978C134.785 27.8437 134.881 27.357 134.881 26.8656ZM117.815 23.6802V24.1444C117.842 28.1664 114.942 31.5834 111.042 32.1252C107.142 32.667 103.455 30.1656 102.43 26.2824C101.405 22.3992 103.361 18.3418 106.999 16.8062C108.763 16.0675 110.739 16.0079 112.545 16.6389C114.351 17.27 115.86 18.547 116.78 20.224L115.392 21.0236C114.695 19.7392 113.56 18.7471 112.195 18.2272C110.829 17.7073 109.322 17.6939 107.947 18.1896C106.567 18.7074 105.41 19.6912 104.678 20.9709C103.946 22.2507 103.684 23.7459 103.937 25.1984C104.155 26.653 104.887 27.9814 106 28.9427C107.114 29.9039 108.535 30.4344 110.005 30.438C111.476 30.4416 112.9 29.9179 114.018 28.962C115.136 28.0062 115.874 26.6813 116.099 25.2278H110.016V23.6802H117.815ZM121.146 16.5322H122.812V32.1988H121.146V16.5322ZM99.4936 16.5322V32.1988H96.1366V25.88H89.8842V32.1988H86.5018V16.5322H89.8842V22.825H96.1366V16.532L99.4936 16.5322ZM85.1694 19.5872H81.3446V32.1988H78.0266V19.5872H74.1764V16.5322H85.1694V19.5872ZM67.2602 19.5612V22.8512H72.3242V25.88H67.2602V29.17H73.177V32.1988H63.8496V16.5322H73.177V19.561L67.2602 19.5612Z" fill="white"/>
<path d="M35.9588 60V51.2727H41.4304V52.4062H37.2756V55.0653H41.1449V56.1946H37.2756V58.8665H41.4815V60H35.9588ZM42.7589 52.4062V51.2727H49.5131V52.4062H46.7901V60H45.4776V52.4062H42.7589ZM51.0057 60V51.2727H52.3224V55.0653H56.6733V51.2727H57.9943V60H56.6733V56.1946H52.3224V60H51.0057ZM61.2287 51.2727V60H59.9119V51.2727H61.2287ZM64.3182 56.1136V60H63.044V53.4545H64.267V54.5199H64.348C64.4986 54.1733 64.7344 53.8949 65.0554 53.6847C65.3793 53.4744 65.7869 53.3693 66.2784 53.3693C66.7244 53.3693 67.1151 53.4631 67.4503 53.6506C67.7855 53.8352 68.0455 54.1108 68.2301 54.4773C68.4148 54.8437 68.5071 55.2969 68.5071 55.8366V60H67.233V55.9901C67.233 55.5156 67.1094 55.1449 66.8622 54.8778C66.6151 54.608 66.2756 54.473 65.8438 54.473C65.5483 54.473 65.2855 54.5369 65.0554 54.6648C64.8281 54.7926 64.6477 54.9801 64.5142 55.2273C64.3835 55.4716 64.3182 55.767 64.3182 56.1136ZM72.6662 60.1278C72.1378 60.1278 71.6662 59.9929 71.2514 59.723C70.8395 59.4503 70.5156 59.0625 70.2798 58.5597C70.0469 58.054 69.9304 57.4474 69.9304 56.7401C69.9304 56.0327 70.0483 55.4276 70.2841 54.9247C70.5227 54.4219 70.8494 54.0369 71.2642 53.7699C71.679 53.5028 72.1491 53.3693 72.6747 53.3693C73.081 53.3693 73.4077 53.4375 73.6548 53.5739C73.9048 53.7074 74.098 53.8636 74.2344 54.0426C74.3736 54.2216 74.4815 54.3793 74.5582 54.5156H74.6349V51.2727H75.9091V60H74.6648V58.9815H74.5582C74.4815 59.1207 74.3707 59.2798 74.2259 59.4588C74.0838 59.6378 73.8878 59.794 73.6378 59.9276C73.3878 60.0611 73.0639 60.1278 72.6662 60.1278ZM72.9474 59.0412C73.3139 59.0412 73.6236 58.9446 73.8764 58.7514C74.1321 58.5554 74.3253 58.2841 74.456 57.9375C74.5895 57.5909 74.6562 57.1875 74.6562 56.7273C74.6562 56.2727 74.5909 55.875 74.4602 55.5341C74.3295 55.1932 74.1378 54.9276 73.8849 54.7372C73.6321 54.5469 73.3196 54.4517 72.9474 54.4517C72.5639 54.4517 72.2443 54.5511 71.9886 54.75C71.733 54.9489 71.5398 55.2202 71.4091 55.5639C71.2813 55.9077 71.2173 56.2955 71.2173 56.7273C71.2173 57.1648 71.2827 57.5582 71.4134 57.9077C71.544 58.2571 71.7372 58.5341 71.9929 58.7386C72.2514 58.9403 72.5696 59.0412 72.9474 59.0412ZM77.7276 60V53.4545H79.0018V60H77.7276ZM78.3711 52.4446C78.1495 52.4446 77.9592 52.3707 77.8001 52.223C77.6438 52.0724 77.5657 51.8935 77.5657 51.6861C77.5657 51.4759 77.6438 51.2969 77.8001 51.1491C77.9592 50.9986 78.1495 50.9233 78.3711 50.9233C78.5927 50.9233 78.7816 50.9986 78.9379 51.1491C79.0969 51.2969 79.1765 51.4759 79.1765 51.6861C79.1765 51.8935 79.0969 52.0724 78.9379 52.223C78.7816 52.3707 78.5927 52.4446 78.3711 52.4446ZM82.6207 60.1449C82.206 60.1449 81.831 60.0682 81.4957 59.9148C81.1605 59.7585 80.8949 59.5327 80.6989 59.2372C80.5057 58.9418 80.4091 58.5795 80.4091 58.1506C80.4091 57.7812 80.4801 57.4773 80.6222 57.2386C80.7642 57 80.956 56.8111 81.1974 56.6719C81.4389 56.5327 81.7088 56.4276 82.0071 56.3565C82.3054 56.2855 82.6094 56.2315 82.919 56.1946C83.3111 56.1491 83.6293 56.1122 83.8736 56.0838C84.1179 56.0526 84.2955 56.0028 84.4062 55.9347C84.517 55.8665 84.5724 55.7557 84.5724 55.6023V55.5724C84.5724 55.2003 84.4673 54.9119 84.2571 54.7074C84.0497 54.5028 83.7401 54.4006 83.3281 54.4006C82.8991 54.4006 82.5611 54.4957 82.3139 54.6861C82.0696 54.8736 81.9006 55.0824 81.8068 55.3125L80.6094 55.0398C80.7514 54.642 80.9588 54.321 81.2315 54.0767C81.5071 53.8295 81.8239 53.6506 82.1818 53.5398C82.5398 53.4261 82.9162 53.3693 83.3111 53.3693C83.5724 53.3693 83.8494 53.4006 84.142 53.4631C84.4375 53.5227 84.7131 53.6335 84.9688 53.7955C85.2273 53.9574 85.4389 54.1889 85.6037 54.4901C85.7685 54.7884 85.8509 55.1761 85.8509 55.6534V60H84.6065V59.1051H84.5554C84.473 59.2699 84.3494 59.4318 84.1847 59.5909C84.0199 59.75 83.8082 59.8821 83.5497 59.9872C83.2912 60.0923 82.9815 60.1449 82.6207 60.1449ZM82.8977 59.1222C83.25 59.1222 83.5511 59.0526 83.8011 58.9134C84.054 58.7741 84.2457 58.5923 84.3764 58.3679C84.5099 58.1406 84.5767 57.8977 84.5767 57.6392V56.7955C84.5313 56.8409 84.4432 56.8835 84.3125 56.9233C84.1847 56.9602 84.0384 56.9929 83.8736 57.0213C83.7088 57.0469 83.5483 57.071 83.392 57.0938C83.2358 57.1136 83.1051 57.1307 83 57.1449C82.7528 57.1761 82.527 57.2287 82.3224 57.3026C82.1207 57.3764 81.9588 57.483 81.8366 57.6222C81.7173 57.7585 81.6577 57.9403 81.6577 58.1676C81.6577 58.483 81.7741 58.7216 82.0071 58.8835C82.2401 59.0426 82.5369 59.1222 82.8977 59.1222ZM90.7067 60V59.0455L93.6598 55.9858C93.9751 55.6534 94.2351 55.3622 94.4396 55.1122C94.647 54.8594 94.8018 54.6193 94.9041 54.392C95.0064 54.1648 95.0575 53.9233 95.0575 53.6676C95.0575 53.3778 94.9893 53.1278 94.853 52.9176C94.7166 52.7045 94.5305 52.5412 94.2947 52.4276C94.0589 52.3111 93.7933 52.2528 93.4979 52.2528C93.1854 52.2528 92.9126 52.3168 92.6797 52.4446C92.4467 52.5724 92.2678 52.7528 92.1428 52.9858C92.0178 53.2187 91.9553 53.4915 91.9553 53.804H90.6982C90.6982 53.2727 90.8203 52.8082 91.0646 52.4105C91.3089 52.0128 91.6442 51.7045 92.0703 51.4858C92.4964 51.2642 92.9808 51.1534 93.5234 51.1534C94.0717 51.1534 94.5547 51.2628 94.9723 51.4815C95.3928 51.6974 95.7209 51.9929 95.9567 52.3679C96.1925 52.7401 96.3104 53.1605 96.3104 53.6293C96.3104 53.9531 96.2493 54.2699 96.1271 54.5795C96.0078 54.8892 95.799 55.2344 95.5007 55.6151C95.2024 55.9929 94.7876 56.4517 94.2564 56.9915L92.522 58.8068V58.8707H96.451V60H90.7067ZM101.104 60.1449C100.431 60.142 99.8558 59.9645 99.3786 59.6122C98.9013 59.2599 98.5362 58.7472 98.2834 58.0739C98.0305 57.4006 97.9041 56.5895 97.9041 55.6406C97.9041 54.6946 98.0305 53.8864 98.2834 53.2159C98.5391 52.5455 98.9055 52.0341 99.3828 51.6818C99.8629 51.3295 100.437 51.1534 101.104 51.1534C101.772 51.1534 102.344 51.331 102.822 51.6861C103.299 52.0384 103.664 52.5497 103.917 53.2202C104.173 53.8878 104.3 54.6946 104.3 55.6406C104.3 56.5923 104.174 57.4048 103.921 58.0781C103.668 58.7486 103.303 59.2614 102.826 59.6165C102.349 59.9688 101.775 60.1449 101.104 60.1449ZM101.104 59.0071C101.695 59.0071 102.157 58.7188 102.489 58.142C102.825 57.5653 102.992 56.7315 102.992 55.6406C102.992 54.9162 102.915 54.304 102.762 53.804C102.612 53.3011 102.394 52.9205 102.11 52.6619C101.829 52.4006 101.494 52.2699 101.104 52.2699C100.516 52.2699 100.055 52.5597 99.7195 53.1392C99.3842 53.7187 99.2152 54.5526 99.2124 55.6406C99.2124 56.3679 99.2876 56.983 99.4382 57.4858C99.5916 57.9858 99.8089 58.3651 100.09 58.6236C100.371 58.8793 100.71 59.0071 101.104 59.0071ZM105.812 60V59.0455L108.765 55.9858C109.081 55.6534 109.341 55.3622 109.545 55.1122C109.752 54.8594 109.907 54.6193 110.01 54.392C110.112 54.1648 110.163 53.9233 110.163 53.6676C110.163 53.3778 110.095 53.1278 109.958 52.9176C109.822 52.7045 109.636 52.5412 109.4 52.4276C109.164 52.3111 108.899 52.2528 108.603 52.2528C108.291 52.2528 108.018 52.3168 107.785 52.4446C107.552 52.5724 107.373 52.7528 107.248 52.9858C107.123 53.2187 107.061 53.4915 107.061 53.804H105.804C105.804 53.2727 105.926 52.8082 106.17 52.4105C106.414 52.0128 106.75 51.7045 107.176 51.4858C107.602 51.2642 108.086 51.1534 108.629 51.1534C109.177 51.1534 109.66 51.2628 110.078 51.4815C110.498 51.6974 110.826 51.9929 111.062 52.3679C111.298 52.7401 111.416 53.1605 111.416 53.6293C111.416 53.9531 111.355 54.2699 111.233 54.5795C111.113 54.8892 110.904 55.2344 110.606 55.6151C110.308 55.9929 109.893 56.4517 109.362 56.9915L107.627 58.8068V58.8707H111.556V60H105.812ZM116.21 60.1193C115.625 60.1193 115.102 60.0185 114.642 59.8168C114.184 59.6151 113.822 59.3352 113.555 58.9773C113.291 58.6165 113.149 58.1989 113.129 57.7244H114.467C114.484 57.983 114.571 58.2074 114.727 58.3977C114.886 58.5852 115.093 58.7301 115.349 58.8324C115.605 58.9347 115.889 58.9858 116.201 58.9858C116.545 58.9858 116.849 58.9261 117.113 58.8068C117.38 58.6875 117.589 58.5213 117.74 58.3082C117.89 58.0923 117.966 57.8438 117.966 57.5625C117.966 57.2699 117.89 57.0128 117.74 56.7912C117.592 56.5668 117.375 56.3906 117.088 56.2628C116.804 56.1349 116.46 56.071 116.056 56.071H115.319V54.9972H116.056C116.38 54.9972 116.664 54.9389 116.909 54.8224C117.156 54.706 117.349 54.544 117.488 54.3366C117.627 54.1264 117.697 53.8807 117.697 53.5994C117.697 53.3295 117.636 53.0952 117.514 52.8963C117.395 52.6946 117.224 52.5369 117.002 52.4233C116.784 52.3097 116.525 52.2528 116.227 52.2528C115.943 52.2528 115.677 52.3054 115.43 52.4105C115.186 52.5128 114.987 52.6605 114.833 52.8537C114.68 53.044 114.598 53.2727 114.586 53.5398H113.312C113.326 53.0682 113.466 52.6534 113.73 52.2955C113.997 51.9375 114.349 51.6577 114.787 51.456C115.224 51.2543 115.71 51.1534 116.244 51.1534C116.804 51.1534 117.287 51.2628 117.693 51.4815C118.102 51.6974 118.417 51.9858 118.639 52.3466C118.863 52.7074 118.974 53.1023 118.971 53.5312C118.974 54.0199 118.838 54.4347 118.562 54.7756C118.289 55.1165 117.926 55.3452 117.471 55.4616V55.5298C118.051 55.6179 118.5 55.848 118.818 56.2202C119.139 56.5923 119.298 57.054 119.295 57.6051C119.298 58.0852 119.164 58.5156 118.895 58.8963C118.627 59.277 118.262 59.5767 117.799 59.7955C117.336 60.0114 116.806 60.1193 116.21 60.1193ZM127.214 53.4545V54.4773H123.515V53.4545H127.214ZM124.529 60V52.696C124.529 52.2869 124.619 51.9474 124.798 51.6776C124.977 51.4048 125.214 51.2017 125.509 51.0682C125.805 50.9318 126.126 50.8636 126.472 50.8636C126.728 50.8636 126.947 50.8849 127.129 50.9276C127.31 50.9673 127.445 51.0043 127.533 51.0384L127.235 52.0696C127.175 52.0526 127.099 52.0327 127.005 52.0099C126.911 51.9844 126.798 51.9716 126.664 51.9716C126.354 51.9716 126.133 52.0483 125.999 52.2017C125.869 52.3551 125.803 52.5767 125.803 52.8665V60H124.529ZM128.528 60V53.4545H129.803V60H128.528ZM129.172 52.4446C128.95 52.4446 128.76 52.3707 128.601 52.223C128.445 52.0724 128.366 51.8935 128.366 51.6861C128.366 51.4759 128.445 51.2969 128.601 51.1491C128.76 50.9986 128.95 50.9233 129.172 50.9233C129.393 50.9233 129.582 50.9986 129.739 51.1491C129.898 51.2969 129.977 51.4759 129.977 51.6861C129.977 51.8935 129.898 52.0724 129.739 52.223C129.582 52.3707 129.393 52.4446 129.172 52.4446ZM132.791 56.1136V60H131.517V53.4545H132.74V54.5199H132.821C132.971 54.1733 133.207 53.8949 133.528 53.6847C133.852 53.4744 134.26 53.3693 134.751 53.3693C135.197 53.3693 135.588 53.4631 135.923 53.6506C136.258 53.8352 136.518 54.1108 136.703 54.4773C136.887 54.8437 136.98 55.2969 136.98 55.8366V60H135.706V55.9901C135.706 55.5156 135.582 55.1449 135.335 54.8778C135.088 54.608 134.748 54.473 134.316 54.473C134.021 54.473 133.758 54.5369 133.528 54.6648C133.301 54.7926 133.12 54.9801 132.987 55.2273C132.856 55.4716 132.791 55.767 132.791 56.1136ZM140.593 60.1449C140.179 60.1449 139.804 60.0682 139.468 59.9148C139.133 59.7585 138.868 59.5327 138.672 59.2372C138.478 58.9418 138.382 58.5795 138.382 58.1506C138.382 57.7812 138.453 57.4773 138.595 57.2386C138.737 57 138.929 56.8111 139.17 56.6719C139.412 56.5327 139.681 56.4276 139.98 56.3565C140.278 56.2855 140.582 56.2315 140.892 56.1946C141.284 56.1491 141.602 56.1122 141.846 56.0838C142.091 56.0526 142.268 56.0028 142.379 55.9347C142.49 55.8665 142.545 55.7557 142.545 55.6023V55.5724C142.545 55.2003 142.44 54.9119 142.23 54.7074C142.022 54.5028 141.713 54.4006 141.301 54.4006C140.872 54.4006 140.534 54.4957 140.287 54.6861C140.042 54.8736 139.873 55.0824 139.779 55.3125L138.582 55.0398C138.724 54.642 138.931 54.321 139.204 54.0767C139.48 53.8295 139.797 53.6506 140.154 53.5398C140.512 53.4261 140.889 53.3693 141.284 53.3693C141.545 53.3693 141.822 53.4006 142.115 53.4631C142.41 53.5227 142.686 53.6335 142.941 53.7955C143.2 53.9574 143.412 54.1889 143.576 54.4901C143.741 54.7884 143.824 55.1761 143.824 55.6534V60H142.579V59.1051H142.528C142.446 59.2699 142.322 59.4318 142.157 59.5909C141.993 59.75 141.781 59.8821 141.522 59.9872C141.264 60.0923 140.954 60.1449 140.593 60.1449ZM140.87 59.1222C141.223 59.1222 141.524 59.0526 141.774 58.9134C142.027 58.7741 142.218 58.5923 142.349 58.3679C142.483 58.1406 142.549 57.8977 142.549 57.6392V56.7955C142.504 56.8409 142.416 56.8835 142.285 56.9233C142.157 56.9602 142.011 56.9929 141.846 57.0213C141.681 57.0469 141.521 57.071 141.365 57.0938C141.208 57.1136 141.078 57.1307 140.973 57.1449C140.725 57.1761 140.5 57.2287 140.295 57.3026C140.093 57.3764 139.931 57.483 139.809 57.6222C139.69 57.7585 139.63 57.9403 139.63 58.1676C139.63 58.483 139.747 58.7216 139.98 58.8835C140.213 59.0426 140.51 59.1222 140.87 59.1222ZM146.795 51.2727V60H145.521V51.2727H146.795ZM148.509 60V53.4545H149.783V60H148.509ZM149.152 52.4446C148.931 52.4446 148.74 52.3707 148.581 52.223C148.425 52.0724 148.347 51.8935 148.347 51.6861C148.347 51.4759 148.425 51.2969 148.581 51.1491C148.74 50.9986 148.931 50.9233 149.152 50.9233C149.374 50.9233 149.563 50.9986 149.719 51.1491C149.878 51.2969 149.958 51.4759 149.958 51.6861C149.958 51.8935 149.878 52.0724 149.719 52.223C149.563 52.3707 149.374 52.4446 149.152 52.4446ZM156.402 55.0526L155.247 55.2571C155.199 55.1094 155.122 54.9687 155.017 54.8352C154.915 54.7017 154.776 54.5923 154.599 54.5071C154.423 54.4219 154.203 54.3793 153.939 54.3793C153.578 54.3793 153.277 54.4602 153.036 54.6222C152.794 54.7812 152.673 54.9872 152.673 55.2401C152.673 55.4588 152.754 55.6349 152.916 55.7685C153.078 55.902 153.339 56.0114 153.7 56.0966L154.74 56.3352C155.342 56.4744 155.791 56.6889 156.087 56.9787C156.382 57.2685 156.53 57.6449 156.53 58.108C156.53 58.5 156.416 58.8494 156.189 59.1562C155.964 59.4602 155.651 59.6989 155.247 59.8722C154.847 60.0455 154.382 60.1321 153.854 60.1321C153.121 60.1321 152.523 59.9759 152.06 59.6634C151.597 59.348 151.313 58.9006 151.207 58.321L152.439 58.1335C152.516 58.4545 152.673 58.6974 152.912 58.8622C153.151 59.0241 153.462 59.1051 153.845 59.1051C154.263 59.1051 154.597 59.0185 154.847 58.8452C155.097 58.669 155.222 58.4545 155.222 58.2017C155.222 57.9972 155.145 57.8253 154.991 57.6861C154.841 57.5469 154.609 57.4418 154.297 57.3707L153.189 57.1278C152.578 56.9886 152.126 56.767 151.834 56.4631C151.544 56.1591 151.399 55.7741 151.399 55.3082C151.399 54.9219 151.507 54.5838 151.723 54.294C151.939 54.0043 152.237 53.7784 152.618 53.6165C152.999 53.4517 153.435 53.3693 153.926 53.3693C154.634 53.3693 155.19 53.5227 155.597 53.8295C156.003 54.1335 156.271 54.5412 156.402 55.0526ZM160.986 53.4545V54.4773H157.411V53.4545H160.986ZM158.37 51.8864H159.644V58.0781C159.644 58.3253 159.681 58.5114 159.755 58.6364C159.828 58.7585 159.924 58.8423 160.04 58.8878C160.159 58.9304 160.289 58.9517 160.428 58.9517C160.53 58.9517 160.62 58.9446 160.696 58.9304C160.773 58.9162 160.833 58.9048 160.875 58.8963L161.105 59.9489C161.032 59.9773 160.926 60.0057 160.79 60.0341C160.654 60.0653 160.483 60.0824 160.279 60.0852C159.944 60.0909 159.631 60.0312 159.341 59.9062C159.051 59.7812 158.817 59.5881 158.638 59.3267C158.459 59.0653 158.37 58.7372 158.37 58.3423V51.8864Z" fill="white"/>
</g>
<defs>
<clipPath id="clip0_5704_1329">
<rect width="191" height="70" fill="white"/>
</clipPath>
</defs>
</svg>
