<svg width="139" height="40" viewBox="0 0 139 40" fill="none" xmlns="http://www.w3.org/2000/svg">
<path d="M68.5946 18.7705C67.1648 18.1945 65.4208 17.716 63.3594 17.332H63.3154C61.3137 16.9794 59.8117 16.6552 58.8093 16.3593C57.8069 16.0634 57.0213 15.6668 56.4462 15.1631C55.8712 14.6626 55.5852 13.967 55.5852 13.0824C55.5852 11.7856 56.0723 10.7972 57.0433 10.1172C58.0142 9.44045 59.2963 9.10049 60.8864 9.10049C62.6241 9.10049 64.0287 9.54433 65.1066 10.4289C66.0713 11.2253 66.662 12.2325 66.8788 13.457C66.9228 13.6994 67.1271 13.882 67.3753 13.882L72.2617 13.9198C72.5602 13.9198 72.8022 13.6648 72.7707 13.3657C72.6073 11.7289 72.0668 10.24 71.1556 8.90218C70.1406 7.41328 68.7422 6.25489 66.9605 5.43017C65.1788 4.60545 63.1552 4.18994 60.8864 4.18994C58.737 4.18994 56.8013 4.58971 55.0762 5.3861C53.3542 6.18249 52.0124 7.28736 51.0571 8.70387C50.0987 10.1204 49.621 11.7132 49.621 13.4822C49.621 15.4307 50.0484 16.992 50.9031 18.1724C51.7578 19.3528 52.8765 20.2437 54.2591 20.848C55.6418 21.4524 57.3072 21.9309 59.2492 22.2866L59.4692 22.3306C61.5306 22.7147 63.0703 23.0546 64.0853 23.3474C65.1003 23.6433 65.9016 24.0556 66.4923 24.5876C67.0799 25.1196 67.3753 25.8404 67.3753 26.7564C67.3753 28.0533 66.8443 29.0732 65.7853 29.8098C64.7263 30.5464 63.3563 30.9147 61.6782 30.9147C59.6766 30.9147 58.0551 30.4047 56.8202 29.388C55.6952 28.4625 55.0322 27.2727 54.8342 25.8215C54.7996 25.5697 54.5922 25.3809 54.3377 25.3777L49.4545 25.3053C49.1591 25.3022 48.9171 25.5508 48.9391 25.8499C49.0774 27.6347 49.6336 29.2432 50.6109 30.6754C51.6856 32.2525 53.1656 33.4927 55.051 34.393C56.9364 35.2932 59.1015 35.7434 61.5431 35.7434C63.8119 35.7434 65.8419 35.331 67.6393 34.5031C69.4367 33.6784 70.8414 32.5326 71.8563 31.0752C72.8713 29.6146 73.3804 27.9715 73.3804 26.1426C73.3804 24.1941 72.9373 22.6234 72.0543 21.4304C71.1713 20.2342 70.0149 19.3497 68.5883 18.7768L68.5946 18.7705Z" fill="#12FF80"/>
<path d="M98.6104 30.6974H97.8468C97.4037 30.6974 97.058 30.5809 96.8098 30.3448C96.5584 30.1087 96.4327 29.7247 96.4327 29.1959V20.7441C96.4327 18.059 95.578 16.0161 93.8717 14.6153C92.1623 13.2145 90.1512 12.5 87.0025 12.5C84.0267 12.5 81.7045 13.1484 79.8788 14.417C78.2133 15.5722 77.2109 17.1587 76.8684 19.1702C76.815 19.4818 77.0507 19.7714 77.3681 19.7714H81.8585C82.0847 19.7714 82.2859 19.6234 82.3456 19.4062C82.5498 18.6602 83.0023 18.0527 83.703 17.5805C84.5138 17.036 85.4754 16.7621 86.7417 16.7621C89.1299 16.7621 90.8299 18.2384 90.8299 20.4356V21.1218C90.8299 21.4019 90.6036 21.6286 90.324 21.6286H86.2578C82.9583 21.6286 80.457 22.277 78.7476 23.5739C77.0381 24.874 76.1865 26.7154 76.1865 29.1046C76.1865 31.1695 76.9659 32.7938 78.5276 33.9711C79.6997 34.8556 81.0981 35.3655 82.5404 35.589C83.6402 35.759 84.7715 35.822 85.8776 35.6457C87.034 35.46 87.9735 34.9815 88.9131 34.3016C89.7584 33.6909 90.4623 32.9071 91.1033 31.9533C91.4175 31.4151 92.2377 31.6291 92.2377 32.2555V33.0047C92.2377 34.3677 93.3407 35.4726 94.7013 35.4726H98.6167C98.8963 35.4726 99.1226 35.2459 99.1226 34.9658V31.2042C99.1226 30.924 98.8963 30.6974 98.6167 30.6974H98.6104ZM90.8236 26.1394C90.8236 27.2316 90.5942 28.1823 90.1386 28.9944C89.1833 30.6942 87.4707 31.5819 85.5445 31.5819C84.4258 31.5819 83.5271 31.3175 82.8483 30.7855C82.1696 30.2535 81.8334 29.5453 81.8334 28.6607C81.8334 27.6597 82.2104 26.8854 82.9583 26.3377C83.7093 25.7931 84.7777 25.5192 86.1604 25.5192H90.3146C90.5942 25.5192 90.8205 25.7459 90.8205 26.026V26.1362L90.8236 26.1394Z" fill="#12FF80"/>
<path d="M114.976 4.51416H109.134C106.051 4.51416 103.553 7.01666 103.553 10.1046V12.5599C103.553 12.8401 103.327 13.0667 103.047 13.0667H99.7132C99.4335 13.0667 99.2073 13.2933 99.2073 13.5735V17.3792C99.2073 17.6593 99.4335 17.886 99.7132 17.886H103.047C103.327 17.886 103.553 18.1126 103.553 18.3928V34.9627C103.553 35.2429 103.779 35.4695 104.059 35.4695H108.609C108.889 35.4695 109.115 35.2429 109.115 34.9627V18.3928C109.115 18.1126 109.341 17.886 109.621 17.886H114.925C115.205 17.886 115.431 17.6593 115.431 17.3792V13.5735C115.431 13.2933 115.205 13.0667 114.925 13.0667H109.621C109.341 13.0667 109.115 12.8401 109.115 12.5599V10.3533C109.115 9.793 109.571 9.33657 110.13 9.33657H114.972C115.252 9.33657 115.478 9.10993 115.478 8.82978V5.02411C115.478 4.74395 115.252 4.51731 114.972 4.51731L114.976 4.51416Z" fill="#12FF80"/>
<path d="M137.274 17.6437C136.287 15.9911 134.939 14.7226 133.233 13.838C131.523 12.9535 129.55 12.4971 127.313 12.4971C125.075 12.4971 123.146 12.9881 121.436 13.9482C119.727 14.9083 118.404 16.265 117.461 18.0183C116.519 19.7748 116.047 21.8303 116.047 24.1911C116.047 26.5519 116.534 28.5193 117.505 30.2758C118.476 32.0322 119.868 33.3795 121.678 34.3238C123.488 35.2682 125.616 35.7403 128.061 35.7403C129.946 35.7403 131.63 35.3941 133.12 34.7016C134.606 34.0091 135.806 33.0584 136.721 31.8465C137.503 30.8109 138.038 29.6777 138.32 28.4469C138.396 28.1258 138.154 27.8205 137.827 27.8205H133.255C133.035 27.8205 132.843 27.9622 132.774 28.1699C132.45 29.1237 131.882 29.876 131.068 30.43C130.153 31.0501 129.022 31.3586 127.668 31.3586C126.549 31.3586 125.569 31.1225 124.73 30.6504C123.891 30.1782 123.228 29.514 122.741 28.6578C122.549 28.321 122.392 27.9622 122.266 27.5939C122.131 27.1972 122.037 26.7912 121.968 26.3788C121.946 26.234 121.924 26.0892 121.908 25.9444C121.873 25.6454 122.112 25.381 122.414 25.381H138.182C138.437 25.381 138.657 25.1921 138.685 24.9371C138.707 24.7514 138.723 24.5594 138.729 24.3642C138.745 24.0117 138.751 23.6875 138.751 23.3916C138.751 21.2101 138.257 19.2931 137.271 17.6406L137.274 17.6437ZM132.535 21.5375H122.659C122.335 21.5375 122.09 21.2353 122.162 20.9206C122.319 20.228 122.593 19.5985 122.983 19.0382C123.482 18.3142 124.129 17.7633 124.925 17.3793C125.72 16.9953 126.587 16.8032 127.53 16.8032C129.06 16.8032 130.326 17.2156 131.329 18.0435C132.186 18.7517 132.755 19.7118 133.029 20.9174C133.101 21.2353 132.859 21.5375 132.532 21.5375H132.535Z" fill="#12FF80"/>
<path d="M37.5856 19.9854H33.2555C31.9639 19.9854 30.9144 21.0336 30.9144 22.3305V28.6229C30.9144 29.9166 29.868 30.968 28.5733 30.968H11.3501C10.0586 30.968 9.00903 32.0162 9.00903 33.3131V37.6507C9.00903 38.9445 10.0554 39.9958 11.3501 39.9958H29.5695C30.861 39.9958 31.8948 38.9476 31.8948 37.6507V34.1724C31.8948 32.8787 32.9412 31.9595 34.2359 31.9595H37.5825C38.874 31.9595 39.9235 30.9113 39.9235 29.6144V22.3053C39.9235 21.0115 38.8771 19.9885 37.5825 19.9885L37.5856 19.9854Z" fill="#12FF80"/>
<path d="M9.01227 11.373C9.01227 10.0792 10.0587 9.02786 11.3533 9.02786H28.564C29.8555 9.02786 30.905 7.97964 30.905 6.68275V2.3451C30.905 1.05136 29.8586 0 28.564 0H10.3541C9.06255 0 8.013 1.04821 8.013 2.3451V5.68491C8.013 6.97865 6.9666 8.03001 5.67195 8.03001H2.34106C1.04955 8.03001 0 9.07822 0 10.3751V17.6906C0 18.9843 1.05268 19.9822 2.34418 19.9822H6.67436C7.96587 19.9822 9.01542 18.9339 9.01542 17.6371V11.3698L9.01227 11.373Z" fill="#12FF80"/>
<path d="M22.0876 15.4272H17.9271C16.5717 15.4272 15.4729 16.5279 15.4729 17.8857V22.0533C15.4729 23.4111 16.5717 24.5118 17.9271 24.5118H22.0876C23.443 24.5118 24.5417 23.4111 24.5417 22.0533V17.8857C24.5417 16.5279 23.443 15.4272 22.0876 15.4272Z" fill="#12FF80"/>
</svg>
